<svg xmlns="http://www.w3.org/2000/svg" viewBox="0 0 200 200">
  <!-- Background circle -->
  <circle cx="100" cy="100" r="95" fill="#1a1a2e" stroke="#16c79a" stroke-width="3"/>

  <!-- Cards in background (stacked) -->

  <g opacity="0.6">
    <rect x="45" y="70" width="60" height="85" rx="5" fill="#2d4059" stroke="#16c79a" stroke-width="2" transform="rotate(-15 75 112.5)"/>
    <rect x="60" y="70" width="60" height="85" rx="5" fill="#2d4059" stroke="#16c79a" stroke-width="2" transform="rotate(-7 90 112.5)"/>
  </g>

  <!-- Main card -->

  <rect x="75" y="60" width="60" height="85" rx="5" fill="#ea5455" stroke="#16c79a" stroke-width="2.5"/>

  <!-- Loki horn symbol on card -->

  <g transform="translate(105, 102)">
    <!-- Left horn -->
    <path d="M -12,-25 Q -15,-35 -10,-40 Q -8,-42 -5,-40 L -8,-25 Z" fill="#ffd700" stroke="#16c79a" stroke-width="1.5"/>
    <!-- Right horn -->
    <path d="M 12,-25 Q 15,-35 10,-40 Q 8,-42 5,-40 L 8,-25 Z" fill="#ffd700" stroke="#16c79a" stroke-width="1.5"/>
    <!-- Center ornament -->
    <circle cx="0" cy="-22" r="3" fill="#16c79a"/>
  </g>

  <!-- Decorative runes/marks on card -->

  <g stroke="#16c79a" stroke-width="2" fill="none" opacity="0.7">
    <line x1="85" y1="120" x2="95" y2="120"/>
    <line x1="115" y1="120" x2="125" y2="120"/>
    <line x1="100" y1="128" x2="110" y2="128"/>
  </g>

  <!-- Sparkle effects -->

  <g fill="#ffd700" opacity="0.8">
    <circle cx="145" cy="55" r="2"/>
    <circle cx="155" cy="75" r="1.5"/>
    <circle cx="50" cy="95" r="2"/>
    <circle cx="40" cy="115" r="1.5"/>
  </g>

  <!-- Small stars -->

  <path d="M 150,65 l 2,4 l 4,0 l -3,3 l 1,4 l -4,-2 l -4,2 l 1,-4 l -3,-3 l 4,0 Z" fill="#16c79a" opacity="0.6" transform="scale(0.5)"/>
  <path d="M 100,40 l 2,4 l 4,0 l -3,3 l 1,4 l -4,-2 l -4,2 l 1,-4 l -3,-3 l 4,0 Z" fill="#16c79a" opacity="0.6" transform="scale(0.4)"/>
</svg>
